# AST/ASF file generated using VICON BodyLanguage
# -----------------------------------------------
:version 1.10
:name VICON
:units
  mass 1.0
  length 0.45
  angle deg
:documentation
   .ast/.asf automatically generated from VICON data using
   VICON BodyBuilder and BodyLanguage model FoxedUp or BRILLIANT.MOD
:root
   order TX TY TZ RX RY RZ
   axis XYZ
   position 0 0 0  
   orientation 0 0 0 
:bonedata
  begin
     id 1 
     name lhipjoint
     direction 0.521452 -0.77106 0.36545 
     length 2.0933 
     axis 0 0 0  XYZ
  end
  begin
     id 2 
     name lfemur
     direction 0.34202 -0.939693 0  
     length 6.83441  
     axis 0 0 20  XYZ
    dof rx ry rz
    limits (-160.0 20.0)
           (-70.0 70.0)
           (-60.0 70.0)
  end
  begin
     id 3 
     name ltibia
     direction 0.34202 -0.939693 0   
     length 7.28749   
     axis 0 0 20   XYZ
    dof rx
    limits (-10.0 170.0)
  end
  begin
     id 4 
     name lfoot
     direction 0.100608 -0.276418 0.955757   
     length 1.52195   
     axis -90 7.62852e-016 20   XYZ
    dof rx rz
    limits (-45.0 90.0)
           (-70.0 20.0)
  end
  begin
     id 5 
     name ltoes
     direction 1.53558e-011 -4.21907e-011 1   
     length 0.770459   
     axis -90 7.62852e-016 20   XYZ
    dof rx
    limits (-90.0 20.0)
  end
  begin
     id 6 
     name rhipjoint
     direction -0.488071 -0.788702 0.373812   
     length 2.04648  
     axis 0 0 0  XYZ 
  end
  begin
     id 7 
     name rfemur
     direction -0.34202 -0.939693 0   
     length 6.92583   
     axis 0 0 -20   XYZ
    dof rx ry rz
    limits (-160.0 20.0)
           (-70.0 70.0)
           (-70.0 60.0)
  end
  begin
     id 8 
     name rtibia
     direction -0.34202 -0.939693 0   
     length 7.41043   
     axis 0 0 -20   XYZ
    dof rx
    limits (-10.0 170.0)
 end
 begin
     id 9 
     name rfoot
     direction -0.0784433 -0.215521 0.973343   
     length 1.67708  
     axis -90 -7.62852e-016 -20   XYZ
    dof rx rz
    limits (-45.0 90.0)
           (-20.0 70.0)
  end
  begin
     id 10 
     name rtoes
     direction -1.53551e-011 -4.21842e-011 1   
     length 0.849787   
     axis -90 -7.62852e-016 -20   XYZ
    dof rx
    limits (-90.0 20.0)
  end
  begin
     id 11 
     name lowerback
     direction -0.0122332 0.997575 -0.0685192   
     length 1.98724   
     axis 0 0 0   XYZ
    dof rx ry rz
    limits (-20.0 45.0)
           (-30.0 30.0)
           (-30.0 30.0)
  end
  begin
     id 12 
     name upperback
     direction 0.0182347 0.999724 -0.0148421   
     length 1.99029   
     axis 0 0 0   XYZ
    dof rx ry rz
    limits (-20.0 45.0)
           (-30.0 30.0)
           (-30.0 30.0)
  end
  begin
     id 13 
     name thorax
     direction 0.0242908 0.99956 0.0170184   
     length 1.99573   
     axis 0 0 0   XYZ
    dof rx ry rz
    limits (-20.0 45.0)
           (-30.0 30.0)
           (-30.0 30.0)
  end
  begin
     id 14 
     name lowerneck
     direction 0.0654488 0.985533 0.156338   
     length 1.4285   
     axis 0 0 0   XYZ
    dof rx ry rz
    limits (-20.0 45.0)
           (-30.0 30.0)
           (-30.0 30.0)
  end
  begin
     id 15 
     name upperneck
     direction -0.02953 0.998556 -0.0448842   
     length 1.44709   
     axis 0 0 0   XYZ
    dof rx ry rz
    limits (-20.0 45.0)
           (-30.0 30.0)
           (-30.0 30.0)
  end
  begin
     id 16
     name head
     direction -0.0155588 0.999386 -0.0314063  
     length 1.44689  
     axis 0 0 0   XYZ
    dof rx ry rz
    limits (-20.0 45.0)
           (-30.0 30.0)
           (-30.0 30.0)
  end
  begin
     id 17 
     name lclavicle
     direction 0.968229 0.236071 -0.0824755  
     length 3.60593  
     axis 0 0 0   XYZ
    dof ry rz
    limits (-20.0 10.0)
           (0.0 20.0)
  end
  begin
     id 18 
     name lhumerus
     direction 1 -4.48968e-011 7.8138e-029   
     length 5.06035   
     axis 180 -30 -90   XYZ
    dof rx ry rz
    limits (-60.0 90.0)
           (-90.0 90.0)
           (-90.0 90.0)
  end
  begin
     id 19
     name lradius
     direction 1 -4.48967e-011 9.02887e-028   
     length 3.1478   
     axis 180 -30 -90   XYZ
    dof rx
    limits (-10.0 170.0)
  end
  begin
     id 20
     name lwrist
     direction 1 -4.48961e-011 7.20928e-028   
     length 1.5739   
     axis -5.52449e-016 90 90   XYZ
    dof ry
    limits (-180.0 0.0)
 end
  begin
     id 21 
     name lhand
     direction 1 -4.48972e-011 1.44186e-027   
     length 0.606747   
     axis -9.20027e-016 90 90   XYZ
    dof rx rz
    limits (-90.0 90.0)
           (-45.0 45.0)
  end
  begin
     id 22 
     name lfingers
     direction 1 -4.48943e-011 2.88371e-027   
     length 0.489175   
     axis -1.84005e-015 90 90   XYZ
    dof rx
    limits (0.0 90.0)
  end
  begin
     id 23
     name lthumb
     direction 0.707107 -6.34917e-011 0.707107   
     length 0.70236   
     axis -90 45 2.85299e-015   XYZ
    dof rx rz
    limits (-45.0 45.0)
           (-45.0 45.0)
  end
  begin
     id 24 
     name rclavicle
     direction -0.978165 0.207816 0.0022268   
     length 3.35425  
     axis 0 0 0   XYZ 
    dof ry rz
    limits (-10.0 20.0)
           (-20.0 0.0)
  end
  begin
     id 25 
     name rhumerus
     direction -1 -4.48964e-011 -4.02159e-027  
     length 5.12273   
     axis 180 30 90   XYZ
    dof rx ry rz
    limits (-90.0 60.0)
           (-90.0 90.0)
           (-90.0 90.0)
  end
  begin
     id 26 
     name rradius
     direction -1 -4.48966e-011 1.62746e-027   
     length 3.422   
     axis 180 30 90   XYZ
    dof rx
    limits (-10.0 170.0)
  end
  begin
     id 27 
     name rwrist
     direction -1 -4.4896e-011 7.20928e-028   
     length 1.711   
     axis -5.52449e-016 -90 -90   XYZ
    dof ry
    limits (-180.0 0.0)
  end
  begin
     id 28
     name rhand
     direction -1 -4.48979e-011 1.44186e-027   
     length 0.704599   
     axis -9.20027e-016 -90 -90   XYZ
    dof rx rz
    limits (-90.0 90.0)
           (-45.0 45.0)
  end
  begin
     id 29
     name rfingers
     direction -1 -4.48962e-011 2.88371e-027   
     length 0.568066   
     axis -1.84005e-015 -90 -90   XYZ
    dof rx
    limits (0.0 90.0)
  end
  begin
     id 30
     name rthumb
     direction -0.707107 -6.34949e-011 0.707107   
     length 0.815633   
     axis -90 -45 -2.85299e-015   XYZ
    dof rx rz
    limits (-45.0 45.0)
           (-45.0 45.0)
  end
:hierarchy
  begin
    root lhipjoint rhipjoint lowerback
    lhipjoint lfemur
    lfemur ltibia
    ltibia lfoot
    lfoot ltoes
    rhipjoint rfemur
    rfemur rtibia
    rtibia rfoot
    rfoot rtoes
    lowerback upperback
    upperback thorax
    thorax lowerneck lclavicle rclavicle
    lowerneck upperneck
    upperneck head
    lclavicle lhumerus
    lhumerus lradius
    lradius lwrist
    lwrist lhand lthumb
    lhand lfingers
    rclavicle rhumerus
    rhumerus rradius
    rradius rwrist
    rwrist rhand rthumb
    rhand rfingers
  end

#!OML:ASF E:\id_vita\Project 1\Capture day 1\Session 1\Male1.ASF
:FULLY-SPECIFIED
:DEGREES
86
root 25.8523 16.1711 0.688077 95.8038 -85.5244 -92.6885
lowerback -0.559671 -2.29355 0.761934
upperback 1.91219 -3.15983 2.4106
thorax 2.3714 -1.60485 1.9629
lowerneck -1.04077 -5.34444 -0.75555
upperneck -8.21575 -7.48977 -2.10859
head -2.47273 -3.72294 -0.397021
rclavicle 1.48405e-014 1.2275e-014
rhumerus -30.679 -14.9499 -78.9602
rradius 23.8418
rwrist 7.97405
rhand -21.2225 32.6191
rfingers 7.12502
rthumb 5.15956 2.70195
lclavicle 1.48405e-014 1.2275e-014
lhumerus -27.5201 20.476 80.2029
lradius 14.9849
lwrist -14.2201
lhand -8.55708 45.6688
lfingers 7.12502
lthumb 17.3728 74.9124
rfemur -9.60335 1.37913 28.4386
rtibia 25.8315
rfoot -18.7856 -5.04036
rtoes -7.82858
lfemur -24.2525 3.13706 -16.1525
ltibia 63.7774
lfoot -9.5524 -8.37243
ltoes 47.2154
87
root 25.6974 16.1563 0.678326 97.4196 -85.6768 -94.3785
lowerback -0.125244 -2.18815 0.792738
upperback 1.64553 -2.99031 2.14031
thorax 1.83125 -1.51314 1.69737
lowerneck -0.965853 -5.24833 -0.786093
upperneck -7.54012 -7.31572 -2.07834
head -2.25758 -3.63458 -0.394977
rclavicle -5.73595e-014 1.36416e-014
rhumerus -30.8137 -13.9727 -79.628
rradius 24.9847
rwrist 6.80075
rhand -21.4064 33.2556
rfingers 7.12502
rthumb 4.98198 3.33418
lclavicle -5.73595e-014 1.36416e-014
lhumerus -29.0154 20.4362 79.248
lradius 15.003
lwrist -14.1513
lhand -8.60055 45.4908
lfingers 7.12502
lthumb 17.3309 74.7381
rfemur -8.92322 1.47628 28.3251
rtibia 25.945
rfoot -19.6168 -4.57053
rtoes -7.51455
lfemur -25.4232 3.35634 -16.5659
ltibia 62.7508
lfoot -10.3599 -8.48026
ltoes 47.2528
88
root 25.543 16.1424 0.670863 99.7455 -85.5787 -96.7605
lowerback -0.185581 -2.08056 0.909995
upperback 1.92014 -2.85715 2.05779
thorax 2.13407 -1.4452 1.54123
lowerneck -1.24641 -5.38909 -0.27661
upperneck -8.20012 -7.56238 -2.36289
head -2.46377 -3.76921 -0.560532
rclavicle -1.75893e-014 1.43125e-014
rhumerus -29.9207 -13.1081 -80.3277
rradius 25.9875
rwrist 5.86361
rhand -21.7652 33.7579
rfingers 7.12502
rthumb 4.63552 3.82865
lclavicle -1.75893e-014 1.43125e-014
lhumerus -29.517 21.3697 78.4459
lradius 14.7175
lwrist -14.7793
lhand -8.22091 45.4166
lfingers 7.12502
lthumb 17.6963 74.6313
rfemur -8.18038 1.6927 28.4714
rtibia 25.8852
rfoot -20.2781 -4.25104
rtoes -6.99164
lfemur -26.5688 3.67293 -16.7014
ltibia 61.5074
lfoot -11.0333 -8.57118
ltoes 47.1769
89
root 25.3956 16.1258 0.663487 101.788 -85.3663 -98.7322
lowerback -0.192515 -1.95949 1.16028
upperback 2.03221 -2.70282 2.01978
thorax 2.23659 -1.36377 1.36328
lowerneck -1.76827 -5.07232 -1.54222
upperneck -7.188 -7.00488 -1.24937
head -1.93529 -3.48906 -0.0506113
rclavicle 1.81018e-014 -1.89839e-014
rhumerus -29.2383 -12.0936 -80.9379
rradius 27.1177
rwrist 4.84684
rhand -22.1983 33.5094
rfingers 7.12502
rthumb 4.21732 3.57138
lclavicle 1.81018e-014 -1.89839e-014
lhumerus -30.1018 22.3903 77.5432
lradius 14.2105
lwrist -15.5993
lhand -8.09821 45.2741
lfingers 7.12502
lthumb 17.8143 74.4782
rfemur -7.53368 1.91418 28.7372
rtibia 25.6559
rfoot -20.4603 -4.35453
rtoes -5.97099
lfemur -27.8272 4.00202 -16.7332
ltibia 60.0243
lfoot -11.652 -8.80981
ltoes 46.9491
90
root 25.2481 16.1089 0.657139 102.555 -85.0895 -99.4962
lowerback 0.183766 -1.89972 1.42772
upperback 1.85711 -2.61182 2.05851
thorax 1.83372 -1.31528 1.27304
lowerneck -1.33238 -5.35553 -0.79435
upperneck -8.10397 -7.48779 -1.98157
head -2.37599 -3.72801 -0.362013
rclavicle -3.42531e-014 2.0276e-014
rhumerus -29.0677 -10.8319 -81.3803
rradius 28.4282
rwrist 3.37306
rhand -22.1434 33.3677
rfingers 7.12502
rthumb 4.27025 3.43073
lclavicle -3.42531e-014 2.0276e-014
lhumerus -31.3378 23.3244 76.4522
lradius 13.8843
lwrist -16.3362
lhand -7.96866 45.2946
lfingers 7.12502
lthumb 17.939 74.4873
rfemur -6.74835 2.0077 29.0958
rtibia 25.2995
rfoot -20.3721 -4.8855
rtoes -5.46839
lfemur -28.8978 4.25743 -16.6776
ltibia 58.3294
lfoot -12.1418 -8.9629
ltoes 46.7124
